<svg width="864" height="192" xmlns="http://www.w3.org/2000/svg" xmlns:xlink="http://www.w3.org/1999/xlink" overflow="hidden"><defs><clipPath id="clip0"><rect x="0" y="0" width="864" height="192"/></clipPath></defs><g clip-path="url(#clip0)"><rect x="0" y="0" width="864" height="192" fill="#FFFFFF"/><text fill="#DEEBF7" font-family="Century Gothic,Century Gothic_MSFontService,sans-serif" font-weight="400" font-size="253" transform="translate(130.798 187)">CCDB</text><g><g><g><path d="M185.25 43.875C185.25 54.6446 154.693 63.375 117 63.375 79.3066 63.375 48.75 54.6446 48.75 43.875 48.75 33.1054 79.3066 24.375 117 24.375 154.693 24.375 185.25 33.1054 185.25 43.875Z" fill="#00B0F0" transform="matrix(1.00427 0 0 1 -44 -21)"/><path d="M165.75 92.625C162.825 92.625 160.875 90.675 160.875 87.75 160.875 84.825 162.825 82.875 165.75 82.875 168.675 82.875 170.625 84.825 170.625 87.75 170.625 90.675 168.675 92.625 165.75 92.625ZM117 73.125C79.4625 73.125 48.75 64.35 48.75 53.625L48.75 92.625C48.75 103.35 79.4625 112.125 117 112.125 154.538 112.125 185.25 103.35 185.25 92.625L185.25 53.625C185.25 64.35 154.538 73.125 117 73.125Z" fill="#00B0F0" transform="matrix(1.00427 0 0 1 -44 -21)"/><path d="M165.75 141.375C162.825 141.375 160.875 139.425 160.875 136.5 160.875 133.575 162.825 131.625 165.75 131.625 168.675 131.625 170.625 133.575 170.625 136.5 170.625 139.425 168.675 141.375 165.75 141.375ZM117 121.875C79.4625 121.875 48.75 113.1 48.75 102.375L48.75 141.375C48.75 152.1 79.4625 160.875 117 160.875 154.538 160.875 185.25 152.1 185.25 141.375L185.25 102.375C185.25 113.1 154.538 121.875 117 121.875Z" fill="#00B0F0" transform="matrix(1.00427 0 0 1 -44 -21)"/><path d="M165.75 190.125C162.825 190.125 160.875 188.175 160.875 185.25 160.875 182.325 162.825 180.375 165.75 180.375 168.675 180.375 170.625 182.325 170.625 185.25 170.625 188.175 168.675 190.125 165.75 190.125ZM117 170.625C79.4625 170.625 48.75 161.85 48.75 151.125L48.75 190.125C48.75 200.85 79.4625 209.625 117 209.625 154.538 209.625 185.25 200.85 185.25 190.125L185.25 151.125C185.25 161.85 154.538 170.625 117 170.625Z" fill="#00B0F0" transform="matrix(1.00427 0 0 1 -44 -21)"/></g></g></g></g></svg>