<svg width="1008" height="192" xmlns="http://www.w3.org/2000/svg" xmlns:xlink="http://www.w3.org/1999/xlink" overflow="hidden"><defs><clipPath id="clip0"><rect x="0" y="0" width="1008" height="192"/></clipPath></defs><g clip-path="url(#clip0)"><text fill="#DEEBF7" font-family="Century Gothic,Century Gothic_MSFontService,sans-serif" font-weight="400" font-size="253" transform="translate(256.435 187)">CCDB</text><g><g><g><path d="M226.667 23.5C226.667 34.1775 196.371 42.8333 159 42.8333 121.629 42.8333 91.3333 34.1775 91.3333 23.5 91.3333 12.8225 121.629 4.16667 159 4.16667 196.371 4.16667 226.667 12.8225 226.667 23.5Z" fill="#00B0F0"/><path d="M207.333 71.8333C204.433 71.8333 202.5 69.9 202.5 67 202.5 64.1 204.433 62.1667 207.333 62.1667 210.233 62.1667 212.167 64.1 212.167 67 212.167 69.9 210.233 71.8333 207.333 71.8333ZM159 52.5C121.783 52.5 91.3333 43.8 91.3333 33.1667L91.3333 71.8333C91.3333 82.4667 121.783 91.1667 159 91.1667 196.217 91.1667 226.667 82.4667 226.667 71.8333L226.667 33.1667C226.667 43.8 196.217 52.5 159 52.5Z" fill="#00B0F0"/><path d="M207.333 120.167C204.433 120.167 202.5 118.233 202.5 115.333 202.5 112.433 204.433 110.5 207.333 110.5 210.233 110.5 212.167 112.433 212.167 115.333 212.167 118.233 210.233 120.167 207.333 120.167ZM159 100.833C121.783 100.833 91.3333 92.1333 91.3333 81.5L91.3333 120.167C91.3333 130.8 121.783 139.5 159 139.5 196.217 139.5 226.667 130.8 226.667 120.167L226.667 81.5C226.667 92.1333 196.217 100.833 159 100.833Z" fill="#00B0F0"/><path d="M207.333 168.5C204.433 168.5 202.5 166.567 202.5 163.667 202.5 160.767 204.433 158.833 207.333 158.833 210.233 158.833 212.167 160.767 212.167 163.667 212.167 166.567 210.233 168.5 207.333 168.5ZM159 149.167C121.783 149.167 91.3333 140.467 91.3333 129.833L91.3333 168.5C91.3333 179.133 121.783 187.833 159 187.833 196.217 187.833 226.667 179.133 226.667 168.5L226.667 129.833C226.667 140.467 196.217 149.167 159 149.167Z" fill="#00B0F0"/></g></g></g></g></svg>
