<svg width="288" height="288" xmlns="http://www.w3.org/2000/svg" xmlns:xlink="http://www.w3.org/1999/xlink" overflow="hidden"><g><rect x="0" y="0" width="288" height="288" fill="#FFFFFF" fill-opacity="0"/><g><g><path d="M311.88 137.227C305.642 122.184 288.397 115.212 273.354 121.45 260.878 126.587 253.54 139.796 255.375 152.638L208.042 172.451C202.905 163.645 193.732 157.041 183.459 155.206L183.459 104.205C195.934 100.902 205.474 89.5279 205.474 75.9519 205.474 59.8076 192.265 46.5985 176.12 46.5985L176.12 46.5985C159.976 46.5985 146.767 59.8076 146.767 75.9519 146.767 89.5279 156.307 100.902 168.782 104.205L168.782 154.839C158.141 156.674 149.335 163.278 144.199 172.084L96.8662 152.271C98.7008 139.429 91.7294 126.22 78.8873 121.083 63.8436 114.845 46.5985 121.817 40.3609 136.86 34.1233 151.904 41.0948 169.149 56.1384 175.387 68.6136 180.523 82.9234 176.487 90.6286 165.847L139.062 185.66C138.695 187.128 138.695 188.963 138.695 190.43 138.695 198.502 141.263 206.208 146.033 212.445L107.874 250.972C96.4993 244.367 81.8226 245.835 72.2828 255.375 60.9083 266.749 60.9083 285.462 72.2828 296.836 83.6572 308.211 102.37 308.211 113.744 296.836 123.284 287.296 124.752 272.62 118.147 261.245L157.041 222.352C162.544 225.654 168.782 227.489 175.387 227.489 175.753 227.489 175.753 227.489 176.12 227.489 176.487 227.489 176.487 227.489 176.854 227.489 183.459 227.489 189.696 225.654 195.2 222.352L234.093 261.245C227.489 272.62 228.957 287.296 238.496 297.203 249.871 308.578 268.584 308.578 279.958 297.203 291.333 285.829 291.333 267.116 279.958 255.742 270.418 246.202 255.742 244.734 244.367 251.339L206.208 212.812C210.978 206.575 213.546 199.236 213.546 190.797 213.546 189.329 213.546 187.495 213.179 186.027L261.612 166.214C269.317 176.487 283.627 180.89 296.102 175.753 310.779 169.149 318.117 152.271 311.88 137.227Z" stroke="#F4B183" stroke-width="7.38972" fill="#00B0F0" fill-opacity="0.39" transform="matrix(1.00817 0 0 1 -33.6546 -35.022)"/></g></g><text font-family="Times New Roman,Times New Roman_MSFontService,sans-serif" font-weight="400" font-size="24" transform="translate(110.101 164)">CCDB</text></g></svg>